<svg id="Layer_1" data-name="Layer 1" xmlns="http://www.w3.org/2000/svg" viewBox="0 0 237.72 62.35"><defs><style>.cls-1{fill:#7bc748;}.cls-2{fill:#404040;}.cls-3{fill:#ef5480;}.cls-4{fill:#1da4e2;}.cls-5{fill:#fff;}</style></defs><title>Logo2</title><path class="cls-1" d="M45.16,62.35S1.45,61.89.07,26.45c0,0-.75-6.83,2.86-10.94,0,0,36.25-5.7,35.26,27,0,0-.84-28.38,50.93-26.92,0,0,4.52,1.23,4.83,11.58C93.94,27.14,93.23,61.12,45.16,62.35Z"/><path class="cls-2" d="M27.68,22.87s-10.07,4.45-10.12,14c0,0,.05,20.3,27.87,20.45,0,0,29.45-.21,29.61-18.31,0,0,1.17-8.23-14.57-8.43,0,0-9.71-.41-20,10.74,0,0-1.79,2.3-3.94,1.07a16.79,16.79,0,0,1-8.18-10.07A60.35,60.35,0,0,1,27.68,22.87Z"/><path class="cls-3" d="M27.7,20A27.05,27.05,0,0,1,45.27.3,4.43,4.43,0,0,1,49.1.61S63.67,7.28,62.21,18.32c0,0-23.24,5.9-23.93,24.39,0,0-2.22,1.23-7.36-4.91,0,0-4.35-4.55-3.4-14.86C27.52,22.95,27.62,20.39,27.7,20Z"/><path class="cls-2" d="M38.21,42.63s-8.77-11.79,3.4-21.7c0,0,7.52-6.8,18.25-1.89C59.86,19,38.24,25.69,38.21,42.63Z"/><path class="cls-3" d="M77.41,28l-0.7-1.32H70.79L70.09,28a4.37,4.37,0,0,1-.7,1.07,1.33,1.33,0,0,1-.94.28,1.7,1.7,0,0,1-1-.3A0.82,0.82,0,0,1,67,28.43a1.08,1.08,0,0,1,.1-0.44c0.07-.16.18-0.37,0.33-0.64L71.2,20.5l0.38-.71a3.33,3.33,0,0,1,.48-0.69,1.82,1.82,0,0,1,.67-0.44,2.71,2.71,0,0,1,1-.17,2.75,2.75,0,0,1,1,.17,1.93,1.93,0,0,1,.67.43,3.06,3.06,0,0,1,.43.58l0.44,0.81,3.81,6.8a2.69,2.69,0,0,1,.45,1.13,0.85,0.85,0,0,1-.42.67,1.7,1.7,0,0,1-1,.31,1.79,1.79,0,0,1-.6-0.09,1.22,1.22,0,0,1-.42-0.25,2.34,2.34,0,0,1-.36-0.47Zm-5.85-2.93h4.35l-2.2-4.35Z"/><path class="cls-4" d="M86.7,24.7h-1v3.39a1.18,1.18,0,0,1-.41,1,1.69,1.69,0,0,1-1.06.32,1.64,1.64,0,0,1-1.09-.33,1.21,1.21,0,0,1-.39-1V20a1.14,1.14,0,0,1,.43-1,2.39,2.39,0,0,1,1.38-.31h4.8c0.66,0,1.23,0,1.7.06A5.56,5.56,0,0,1,92.3,19a3.92,3.92,0,0,1,1.21.6,2.68,2.68,0,0,1,.8.9,2.3,2.3,0,0,1,.27,1.09,2.25,2.25,0,0,1-.92,1.89,6.21,6.21,0,0,1-2.79,1,5.43,5.43,0,0,1,1.5.89,9.8,9.8,0,0,1,1.28,1.25,9,9,0,0,1,.88,1.2,1.93,1.93,0,0,1,.31.74,0.63,0.63,0,0,1-.18.41,1.28,1.28,0,0,1-.5.32,2.12,2.12,0,0,1-.74.12,1.84,1.84,0,0,1-.84-0.17A2.07,2.07,0,0,1,92,28.79c-0.16-.17-0.38-0.43-0.66-0.76l-1.18-1.42A8.59,8.59,0,0,0,89,25.41a3,3,0,0,0-1-.56A4.66,4.66,0,0,0,86.7,24.7Zm1.69-4.43H85.67v2.9h2.64A10,10,0,0,0,90.1,23a2.4,2.4,0,0,0,1.11-.45,1.08,1.08,0,0,0,.38-0.88,1.11,1.11,0,0,0-.31-0.77,1.86,1.86,0,0,0-.86-0.5A8.34,8.34,0,0,0,88.39,20.27Z"/><path class="cls-4" d="M97.5,28.09v-8.3a1.16,1.16,0,0,1,.41-1A1.64,1.64,0,0,1,99,18.49a1.7,1.7,0,0,1,1.08.32,1.16,1.16,0,0,1,.41,1v8.3a1.17,1.17,0,0,1-.41,1,1.71,1.71,0,0,1-1.08.32,1.63,1.63,0,0,1-1-.33A1.16,1.16,0,0,1,97.5,28.09Z"/><path class="cls-3" d="M118.31,20.43h-3.22v7.66a1.17,1.17,0,0,1-.41,1,1.66,1.66,0,0,1-1.05.32,1.69,1.69,0,0,1-1.07-.32,1.17,1.17,0,0,1-.41-1V20.43h-3.22a2.07,2.07,0,0,1-1.13-.24,0.74,0.74,0,0,1,0-1.28,2.14,2.14,0,0,1,1.11-.24h9.38a2.1,2.1,0,0,1,1.14.25,0.73,0.73,0,0,1,.37.64,0.72,0.72,0,0,1-.38.64A2.12,2.12,0,0,1,118.31,20.43Z"/><path class="cls-4" d="M129.61,28l-0.7-1.32H123L122.3,28a4.4,4.4,0,0,1-.7,1.07,1.33,1.33,0,0,1-.94.28,1.69,1.69,0,0,1-1-.3,0.82,0.82,0,0,1-.43-0.67,1.1,1.1,0,0,1,.1-0.44,6.62,6.62,0,0,1,.33-0.64l3.73-6.85,0.38-.71a3.3,3.3,0,0,1,.48-0.69,1.87,1.87,0,0,1,.67-0.44,2.71,2.71,0,0,1,1-.17,2.76,2.76,0,0,1,1,.17,1.93,1.93,0,0,1,.67.43,3.09,3.09,0,0,1,.43.58l0.44,0.81,3.81,6.8a2.75,2.75,0,0,1,.45,1.13,0.85,0.85,0,0,1-.42.67,1.69,1.69,0,0,1-1,.31,1.78,1.78,0,0,1-.6-0.09,1.2,1.2,0,0,1-.42-0.25,2.27,2.27,0,0,1-.36-0.47Zm-5.85-2.93h4.35l-2.2-4.35Z"/><path class="cls-4" d="M138.78,19.77L144.46,26V19.71a1.13,1.13,0,0,1,.36-0.91,1.47,1.47,0,0,1,1-.31,1.52,1.52,0,0,1,1,.31,1.12,1.12,0,0,1,.37.91V28a1.32,1.32,0,0,1-1.59,1.39,2.85,2.85,0,0,1-.71-0.08,2.1,2.1,0,0,1-.59-0.26,2.91,2.91,0,0,1-.52-0.42l-0.48-.49L137.74,22v6.18a1.1,1.1,0,0,1-.39.91,1.76,1.76,0,0,1-2,0,1.12,1.12,0,0,1-.38-0.91V20a1.72,1.72,0,0,1,.16-0.81,1.38,1.38,0,0,1,.63-0.53,2.21,2.21,0,0,1,.95-0.2,2.17,2.17,0,0,1,.68.09,1.67,1.67,0,0,1,.5.25,2.66,2.66,0,0,1,.44.41Z"/><path class="cls-4" d="M159.46,28l-0.69-1.32h-5.92L152.14,28a4.23,4.23,0,0,1-.7,1.07,1.33,1.33,0,0,1-.94.28,1.7,1.7,0,0,1-1-.3,0.82,0.82,0,0,1-.43-0.67,1.1,1.1,0,0,1,.1-0.44,6.86,6.86,0,0,1,.33-0.64l3.73-6.85,0.38-.71a3.3,3.3,0,0,1,.47-0.69,1.87,1.87,0,0,1,.67-0.44,3.2,3.2,0,0,1,2,0,1.89,1.89,0,0,1,.67.43,3,3,0,0,1,.43.58l0.44,0.81,3.81,6.8a2.72,2.72,0,0,1,.45,1.13,0.84,0.84,0,0,1-.42.67,1.7,1.7,0,0,1-1,.31,1.79,1.79,0,0,1-.6-0.09,1.25,1.25,0,0,1-.42-0.25,2.27,2.27,0,0,1-.36-0.47Zm-5.84-2.93H158l-2.2-4.35Z"/><path class="cls-3" d="M182.29,25.88a2.18,2.18,0,0,1-.34,1.09,4.13,4.13,0,0,1-1.08,1.15A5.91,5.91,0,0,1,179,29a9.19,9.19,0,0,1-2.66.35,12.74,12.74,0,0,1-2.1-.16,7.38,7.38,0,0,1-1.71-.49,5.52,5.52,0,0,1-1.42-.88,5.33,5.33,0,0,1-1-1.11,4.72,4.72,0,0,1-.61-1.31,5.23,5.23,0,0,1-.2-1.48,4.8,4.8,0,0,1,2-4,6.87,6.87,0,0,1,2.23-1.09,9.69,9.69,0,0,1,2.74-.37,9,9,0,0,1,3.15.51,5.68,5.68,0,0,1,2.12,1.26,2.11,2.11,0,0,1,.73,1.42,0.81,0.81,0,0,1-.36.65,1.37,1.37,0,0,1-.86.28,1.51,1.51,0,0,1-.85-0.19,2.86,2.86,0,0,1-.63-0.67,3.78,3.78,0,0,0-1.36-1.17,4.29,4.29,0,0,0-1.92-.39,4.09,4.09,0,0,0-2.9,1A3.67,3.67,0,0,0,172.29,24a4,4,0,0,0,.48,2,3,3,0,0,0,1.35,1.22,4.83,4.83,0,0,0,2,.4,4.65,4.65,0,0,0,2.15-.46,3,3,0,0,0,1.33-1.34,2.2,2.2,0,0,1,.47-0.68A1.31,1.31,0,0,1,181,25a1.54,1.54,0,0,1,.9.26A0.79,0.79,0,0,1,182.29,25.88Z"/><path class="cls-4" d="M187.84,19.79v7.67h6a2,2,0,0,1,1.1.25,0.75,0.75,0,0,1,.38.64,0.72,0.72,0,0,1-.38.63,2.07,2.07,0,0,1-1.11.24H186.7a2.41,2.41,0,0,1-1.39-.31,1.16,1.16,0,0,1-.42-1V19.79a1.16,1.16,0,0,1,.4-1,1.63,1.63,0,0,1,1.06-.32,1.71,1.71,0,0,1,1.08.32A1.16,1.16,0,0,1,187.84,19.79Z"/><path class="cls-4" d="M206.85,20.31H200.2V22.9h6.12a1.88,1.88,0,0,1,1,.22,0.67,0.67,0,0,1,.33.58,0.7,0.7,0,0,1-.33.59,1.79,1.79,0,0,1-1,.23H200.2v3h6.88a1.89,1.89,0,0,1,1,.24,0.71,0.71,0,0,1,0,1.23,1.9,1.9,0,0,1-1,.24h-8a2.42,2.42,0,0,1-1.39-.31,1.16,1.16,0,0,1-.42-1V20a1.36,1.36,0,0,1,.19-0.75A1.08,1.08,0,0,1,198,18.8a3.39,3.39,0,0,1,1-.13h7.79a2,2,0,0,1,1.05.23,0.69,0.69,0,0,1,0,1.19A1.93,1.93,0,0,1,206.85,20.31Z"/><path class="cls-4" d="M220.16,28l-0.7-1.32h-5.93L212.84,28a4.29,4.29,0,0,1-.69,1.07,1.34,1.34,0,0,1-.95.28,1.69,1.69,0,0,1-1-.3,0.82,0.82,0,0,1-.43-0.67,1,1,0,0,1,.1-0.44,6.32,6.32,0,0,1,.33-0.64l3.73-6.85,0.38-.71a3.59,3.59,0,0,1,.48-0.69,1.85,1.85,0,0,1,.67-0.44,2.72,2.72,0,0,1,1-.17,2.75,2.75,0,0,1,1,.17,1.93,1.93,0,0,1,.67.43,2.9,2.9,0,0,1,.42.58c0.12,0.2.27,0.47,0.45,0.81l3.81,6.8a2.73,2.73,0,0,1,.45,1.13,0.84,0.84,0,0,1-.42.67,1.68,1.68,0,0,1-1,.31,1.78,1.78,0,0,1-.6-0.09,1.21,1.21,0,0,1-.42-0.25,2.14,2.14,0,0,1-.36-0.47Zm-5.85-2.93h4.36l-2.2-4.35Z"/><path class="cls-4" d="M229.32,19.77L235,26V19.71a1.12,1.12,0,0,1,.37-0.91,1.47,1.47,0,0,1,1-.31,1.52,1.52,0,0,1,1,.31,1.12,1.12,0,0,1,.37.91V28a1.32,1.32,0,0,1-1.59,1.39,2.85,2.85,0,0,1-.71-0.08,2.11,2.11,0,0,1-.6-0.26,3.12,3.12,0,0,1-.52-0.42l-0.48-.49L228.28,22v6.18a1.09,1.09,0,0,1-.39.91,1.55,1.55,0,0,1-1,.31,1.52,1.52,0,0,1-1-.31,1.11,1.11,0,0,1-.38-0.91V20a1.73,1.73,0,0,1,.16-0.81,1.36,1.36,0,0,1,.63-0.53,2.39,2.39,0,0,1,1.63-.11,1.69,1.69,0,0,1,.49.25,2.76,2.76,0,0,1,.44.41Z"/><path class="cls-5" d="M115.47,37.73c0.63,0,.8-0.42,1.21-1.61,0.6-1.76,1.27-2.1,2.09-2.1a1,1,0,0,1,1.16.95,0.78,0.78,0,0,1-.78.88,0.75,0.75,0,0,1-.82-0.81c0-.15,0-0.34-0.14-0.34-0.35,0-.42.79-0.51,1.16A2.43,2.43,0,0,1,115.9,38V38a3.1,3.1,0,0,1,2.88,2.37c0.15,0.47.22,1.25,0.62,1.25a0.49,0.49,0,0,0,.33-0.48l0.44,0.08a1.36,1.36,0,0,1-1.37,1.26c-1.3,0-1.88-1.23-2.28-2.63-0.35-1.25-.49-1.68-1.13-1.68H114.6v3.2c0,0.45.16,0.46,0.44,0.46h0.54v0.49h-3.8V41.87h0.54c0.28,0,.44,0,0.44-0.46V35.12c0-.44-0.16-0.46-0.44-0.46h-0.54V34.17h3.8v0.49H115c-0.28,0-.44,0-0.44.46v2.61h0.86Z"/><path class="cls-5" d="M126.46,36.86v0.4h-0.3a0.28,0.28,0,0,0-.35.33v4c0,0.34.18,0.33,0.35,0.33h0.3v0.4h-2.75V42H124a0.27,0.27,0,0,0,.35-0.33V37.54a0.27,0.27,0,0,0-.27-0.28h-0.4c-0.47,0-.45.67-0.5,1.28-0.17,2.13-.35,4-1.78,4a0.83,0.83,0,0,1-.93-0.83,0.7,0.7,0,0,1,.7-0.77,0.61,0.61,0,0,1,.62.4c0.07,0.18,0,.35.18,0.35,0.45,0,.76-2.42.76-3.73a0.53,0.53,0,0,0-.57-0.64h-0.45v-0.4h4.73Z"/><path class="cls-5" d="M129.59,36.86v0.4h-0.17c-0.18,0-.35,0-0.35.33v2.94L130.94,38v-0.4a0.27,0.27,0,0,0-.35-0.33h-0.18v-0.4H133v0.4h-0.31a0.27,0.27,0,0,0-.35.33v4a0.27,0.27,0,0,0,.35.33H133v0.4h-2.62V42h0.18a0.27,0.27,0,0,0,.35-0.33V38.7l-1.87,2.55v0.38c0,0.34.18,0.33,0.35,0.33h0.17v0.4H127V42h0.31a0.27,0.27,0,0,0,.35-0.33v-4a0.27,0.27,0,0,0-.35-0.33H127v-0.4h2.62Z"/><path class="cls-5" d="M136.16,36.86v0.4H136c-0.18,0-.35,0-0.35.33v1.73h1.8V37.59a0.27,0.27,0,0,0-.35-0.33h-0.18v-0.4h2.62v0.4h-0.3a0.28,0.28,0,0,0-.35.33v4a0.27,0.27,0,0,0,.35.33h0.3v0.4h-2.62V42h0.18c0.17,0,.35,0,0.35-0.33V39.72h-1.8v1.92c0,0.34.17,0.33,0.35,0.33h0.17v0.4h-2.62V42h0.3c0.18,0,.35,0,0.35-0.33v-4c0-.34-0.17-0.33-0.35-0.33h-0.3v-0.4h2.62Z"/><path class="cls-5" d="M142.66,36.86v0.4h-0.17c-0.18,0-.35,0-0.35.33v2.94L144,38v-0.4a0.27,0.27,0,0,0-.35-0.33h-0.18v-0.4h2.62v0.4H145.8a0.27,0.27,0,0,0-.35.33v4a0.27,0.27,0,0,0,.35.33h0.31v0.4h-2.62V42h0.18a0.27,0.27,0,0,0,.35-0.33V38.7l-1.87,2.55v0.38c0,0.34.18,0.33,0.35,0.33h0.17v0.4H140V42h0.3c0.18,0,.35,0,0.35-0.33v-4c0-.34-0.17-0.33-0.35-0.33H140v-0.4h2.62Z"/><path class="cls-5" d="M149.24,36.86v0.4h-0.17c-0.18,0-.35,0-0.35.33v1.73h1.8V37.59c0-.34-0.17-0.33-0.35-0.33H150v-0.4h2.62v0.4h-0.3c-0.18,0-.35,0-0.35.33v4c0,0.34.18,0.33,0.35,0.33h0.3v0.4H150V42h0.18c0.18,0,.35,0,0.35-0.33V39.72h-1.8v1.92c0,0.34.17,0.33,0.35,0.33h0.17v0.4h-2.62V42h0.3c0.18,0,.35,0,0.35-0.33v-4c0-.34-0.17-0.33-0.35-0.33h-0.3v-0.4h2.62Z"/><path class="cls-5" d="M157.47,36.86v1.52H157V38.09a1.18,1.18,0,0,0-1.3-.83c-0.37,0-.51.13-0.51,0.33v4c0,0.34.17,0.33,0.35,0.33h0.36v0.4h-2.81V42h0.3c0.18,0,.35,0,0.35-0.33v-4c0-.34-0.17-0.33-0.35-0.33h-0.3v-0.4h4.35Z"/><path class="cls-5" d="M160.86,36.73A2.88,2.88,0,1,1,158,39.61,2.71,2.71,0,0,1,160.86,36.73Zm0,5.36c1.19,0,1.18-1.79,1.18-2.48s0-2.48-1.18-2.48-1.18,1.59-1.18,2.48S159.74,42.09,160.86,42.09Z"/><path class="cls-5" d="M167.43,36.86c0.79,0,2.15.06,2.15,1.36a1.3,1.3,0,0,1-1.24,1.26v0.06a1.4,1.4,0,0,1,1.42,1.31c0,1.18-1,1.51-2.25,1.51h-3.12V42h0.3c0.18,0,.35,0,0.35-0.33v-4c0-.34-0.18-0.33-0.35-0.33h-0.3v-0.4h3Zm-0.36,2.4a1,1,0,0,0,0-2,1.28,1.28,0,0,0-.59.11v1.9h0.58Zm-0.58,2.61a1.57,1.57,0,0,0,.59.09,1,1,0,0,0,1-1.2,0.89,0.89,0,0,0-1-1.07h-0.59v2.18Z"/><path class="cls-5" d="M175.93,41.5a1.23,1.23,0,0,1-1.19,1,1,1,0,0,1-1.05-.75,2.73,2.73,0,0,1-1.85.75,1.35,1.35,0,0,1-1.39-1.43c0-1.43,1.71-1.75,3.2-2V38.19a0.88,0.88,0,0,0-.92-1.06,0.44,0.44,0,0,0-.47.49c0,0.13,0,.25,0,0.37a0.76,0.76,0,0,1-1.52,0c0-.46.33-1.23,2-1.23,1.12,0,2.28.37,2.28,1.78v2.87c0,0.18,0,.33.19,0.33a0.48,0.48,0,0,0,.33-0.33Zm-2.29-2.08A1.69,1.69,0,0,0,172.12,41a0.65,0.65,0,0,0,.68.74,1.19,1.19,0,0,0,.84-0.43V39.42Z"/><path class="cls-5" d="M179.56,42.36V42h0.3c0.18,0,.35,0,0.35-0.33V39.77H180c-0.55,0-.77.81-1.08,1.46-0.49,1-.94,1.24-1.45,1.24a1,1,0,0,1-1.14-1l0.41-.06V41.5a0.24,0.24,0,0,0,.18.27,1.29,1.29,0,0,0,.47-0.75,2.09,2.09,0,0,1,1.94-1.22V39.7c-1.86.13-2.33-.63-2.33-1.33s0.36-1.51,2.1-1.51h3.19v0.4H182c-0.18,0-.35,0-0.35.33v4c0,0.34.18,0.33,0.35,0.33h0.3v0.4h-2.75Zm0.65-5.05a1.72,1.72,0,0,0-.42,0,1,1,0,0,0-1.17,1.1,1.06,1.06,0,0,0,1.23,1.05,1.9,1.9,0,0,0,.36,0V37.31Z"/><path class="cls-5" d="M188,39.23c0.43,0,.55-0.22.85-1a1.76,1.76,0,0,1,1.55-1.48,0.82,0.82,0,0,1,.91.84,0.63,0.63,0,0,1-.64.69,0.68,0.68,0,0,1-.72-0.56c0-.15,0-0.31-0.1-0.31a0.78,0.78,0,0,0-.31.63,1.54,1.54,0,0,1-1,1.35v0.07a2.19,2.19,0,0,1,2.09,1.84,0.59,0.59,0,0,0,.3.49,0.25,0.25,0,0,0,.21-0.28h0.34a1,1,0,0,1-1.05,1c-0.76,0-1.16-.6-1.55-1.63s-0.41-1.24-.8-1.24h-0.4v2c0,0.34.18,0.33,0.35,0.33h0.3v0.4h-2.75V42h0.31a0.27,0.27,0,0,0,.35-0.33v-4a0.27,0.27,0,0,0-.35-0.33h-0.31v-0.4h2.75v0.4H188a0.27,0.27,0,0,0-.35.33v1.64H188Z"/><path class="cls-5" d="M195,36.73a2.88,2.88,0,1,1-2.85,2.88A2.71,2.71,0,0,1,195,36.73Zm0,5.36c1.19,0,1.18-1.79,1.18-2.48s0-2.48-1.18-2.48-1.18,1.59-1.18,2.48S193.83,42.09,195,42.09Z"/><path class="cls-5" d="M203.64,36.86h2.09v0.4h-0.31a0.27,0.27,0,0,0-.35.33v4c0,0.34.18,0.33,0.35,0.33h0.31v0.4H203V42h0.3c0.18,0,.35,0,0.35-0.33V38l-1.73,4.33h-0.36L199.65,38v1.74c0,2.1.43,2.19,0.57,2.19h0.08v0.4h-1.83V42h0.08c0.61,0,.66-1.47.66-2.19V37.59a0.27,0.27,0,0,0-.35-0.33h-0.31v-0.4h2.07l1.57,3.56Z"/><path class="cls-5" d="M212.18,36.86v0.4h-0.3c-0.18,0-.35,0-0.35.33v4c0,0.34.18,0.33,0.35,0.33h0.3v0.4h-2.6V42h0.16c0.18,0,.35,0,0.35-0.33v-4c0-.37-0.2-0.34-0.34-0.34h-1.06c-0.14,0-.34,0-0.34.34v4c0,0.34.18,0.33,0.35,0.33h0.17v0.4h-2.62V42h0.31c0.17,0,.35,0,0.35-0.33v-4a0.28,0.28,0,0,0-.35-0.33h-0.31v-0.4h5.93Z"/><path class="cls-5" d="M218.25,41.5a1.23,1.23,0,0,1-1.19,1,0.94,0.94,0,0,1-1.05-.75,2.72,2.72,0,0,1-1.85.75,1.36,1.36,0,0,1-1.39-1.43c0-1.43,1.71-1.75,3.19-2V38.19a0.88,0.88,0,0,0-.92-1.06,0.44,0.44,0,0,0-.47.49c0,0.13.05,0.25,0.05,0.37a0.76,0.76,0,0,1-1.52,0c0-.46.33-1.23,2-1.23,1.12,0,2.28.37,2.28,1.78v2.87c0,0.18,0,.33.19,0.33a0.47,0.47,0,0,0,.33-0.33ZM216,39.42A1.69,1.69,0,0,0,214.43,41a0.65,0.65,0,0,0,.68.74,1.18,1.18,0,0,0,.84-0.43V39.42Z"/><path class="cls-5" d="M221.3,36.86v0.4h-0.18a0.27,0.27,0,0,0-.35.33v1.73h1.8V37.59c0-.34-0.17-0.33-0.35-0.33H222v-0.4h2.62v0.4h-0.31a0.27,0.27,0,0,0-.35.33v4a0.27,0.27,0,0,0,.35.33h0.31v0.4H222V42h0.18c0.18,0,.35,0,0.35-0.33V39.72h-1.8v1.92c0,0.34.17,0.33,0.35,0.33h0.18v0.4h-2.62V42H219c0.18,0,.35,0,0.35-0.33v-4c0-.34-0.17-0.33-0.35-0.33h-0.3v-0.4h2.62Z"/><path class="cls-5" d="M227.8,36.86v0.4h-0.18c-0.18,0-.35,0-0.35.33v2.94L229.14,38v-0.4a0.27,0.27,0,0,0-.35-0.33h-0.18v-0.4h2.62v0.4h-0.3c-0.18,0-.35,0-0.35.33v4c0,0.34.18,0.33,0.35,0.33h0.3v0.4h-2.62V42h0.18a0.27,0.27,0,0,0,.35-0.33V38.7l-1.87,2.55v0.38c0,0.34.17,0.33,0.35,0.33h0.18v0.4h-2.62V42h0.3a0.27,0.27,0,0,0,.35-0.33v-4a0.27,0.27,0,0,0-.35-0.33h-0.3v-0.4h2.62Z"/><path class="cls-5" d="M234.94,42.36V42h0.3c0.17,0,.35,0,0.35-0.33V39.77h-0.21c-0.55,0-.77.81-1.08,1.46-0.49,1-.94,1.24-1.45,1.24a1,1,0,0,1-1.14-1l0.41-.06V41.5a0.24,0.24,0,0,0,.18.27,1.3,1.3,0,0,0,.47-0.75,2.09,2.09,0,0,1,1.94-1.22V39.7c-1.86.13-2.33-.63-2.33-1.33s0.36-1.51,2.11-1.51h3.19v0.4h-0.3c-0.18,0-.35,0-0.35.33v4c0,0.34.18,0.33,0.35,0.33h0.3v0.4h-2.75Zm0.65-5.05a1.73,1.73,0,0,0-.42,0,1,1,0,0,0-1.17,1.1,1.06,1.06,0,0,0,1.23,1.05,1.9,1.9,0,0,0,.36,0V37.31Z"/></svg>